<?xml version="1.0" encoding="utf-8"?>
<!-- Generator: Adobe Illustrator 21.1.0, SVG Export Plug-In . SVG Version: 6.00 Build 0)  -->
<svg version="1.1" id="Layer_1" xmlns="http://www.w3.org/2000/svg" xmlns:xlink="http://www.w3.org/1999/xlink" x="0px" y="0px"
	 viewBox="0 0 48.2 24" enable-background="new 0 0 48.2 24" xml:space="preserve">
<g id="JqGBQ5.tif">
	<path fill="#B2D234" d="M41.91,8.65v5.3c0,2.28-1.25,3.89-3.45,4.49c-1.09,0.29-2.22,0.34-3.34,0.26
		c-0.89-0.07-1.77-0.25-2.58-0.65c-1.36-0.68-2.12-1.79-2.35-3.28c-0.05-0.34-0.07-0.69-0.07-1.03c-0.01-2.21,0-4.4,0-6.61
		c0-0.16,0.01-0.31,0.04-0.47c0.06-0.44,0.3-0.69,0.79-0.76c0.67-0.1,1.35-0.11,2.03,0.01c0.49,0.09,0.72,0.36,0.77,0.86
		c0.01,0.09,0.02,0.19,0.02,0.27c0.01,2.27,0.01,4.55,0.02,6.81c0,0.18,0.02,0.36,0.05,0.53c0.13,0.59,0.53,0.93,1.09,1.07
		c0.69,0.17,1.38,0.18,2.07,0.03c0.86-0.19,1.25-0.71,1.25-1.59v-3.47c0-1.12,0.01-2.24,0.01-3.36c0-0.07,0-0.14,0.01-0.2
		c0.04-0.59,0.32-0.91,0.91-0.97c0.3-0.04,0.59-0.04,0.92-0.05c0-0.11,0.01-0.23,0-0.35c-0.03-0.34,0.27-0.53,0.51-0.53h2.64
		c0.29,0.01,0.5,0.22,0.5,0.5v2.69c0,0.28-0.2,0.49-0.49,0.49c-0.39,0.01-0.77,0-1.16,0C42.06,8.65,42,8.65,41.91,8.65z M4.05,14
		v3.73c0,0.68-0.17,0.85-0.85,0.85c-0.12,0-0.26-0.01-0.38-0.02C2.49,18.52,2.33,18.34,2.3,18v-0.14c0-3.33,0-6.65,0.01-9.98
		c0-0.23,0.03-0.46,0.08-0.68c0.17-0.75,0.69-1.21,1.48-1.32c0.19-0.03,0.37-0.04,0.55-0.04c1.1,0,2.2-0.01,3.3,0
		c0.59,0.01,1.18,0.11,1.74,0.3c1.05,0.38,1.71,1.11,1.99,2.19c0.26,1.05,0.27,2.11,0,3.16c-0.33,1.26-1.17,2.02-2.42,2.31
		c-0.49,0.11-1,0.17-1.5,0.18C6.45,14.01,5.36,14,4.28,14C4.28,14,4.05,14,4.05,14z M4.05,12.36c0.05,0.01,0.1,0.01,0.13,0.01
		c1.06,0,2.12,0.01,3.18-0.01c0.35-0.01,0.71-0.04,1.06-0.11c0.71-0.13,1.21-0.54,1.37-1.28c0.15-0.71,0.16-1.43-0.02-2.14
		C9.6,8.18,9.18,7.76,8.53,7.6C8.28,7.54,8.04,7.49,7.78,7.49c-1-0.02-1.99-0.01-2.98-0.01c-0.53,0-0.74,0.21-0.75,0.74
		C4.05,8.22,4.05,12.36,4.05,12.36z M24.95,18.67c-0.29,0.02-0.55,0.05-0.8,0.05c-0.86,0.02-1.49-0.37-1.82-1.17
		c-0.23-0.56-0.41-1.16-0.56-1.75c-0.56-2.02-1.1-4.04-1.65-6.07c-0.04-0.13-0.06-0.27-0.06-0.41c-0.01-0.21,0.1-0.36,0.3-0.38
		c0.31-0.03,0.62-0.03,0.93,0.02c0.26,0.04,0.4,0.26,0.47,0.5c0.14,0.49,0.28,1,0.41,1.49c0.48,1.74,0.94,3.48,1.42,5.22
		c0.04,0.12,0.07,0.25,0.11,0.36c0.21,0.56,0.44,0.72,1.13,0.67c0.34-0.03,0.55-0.23,0.64-0.53c0.13-0.43,0.25-0.87,0.35-1.32
		c0.47-1.92,0.93-3.84,1.39-5.76c0.13-0.53,0.35-0.71,0.9-0.7c0.18,0,0.36,0,0.53,0.04c0.22,0.04,0.34,0.18,0.32,0.41
		c-0.04,0.34-0.12,0.69-0.2,1.02c-0.7,2.81-1.39,5.6-2.1,8.41c-0.17,0.67-0.41,1.32-0.78,1.91c-0.6,0.99-1.49,1.52-2.63,1.65
		c-0.19,0.02-0.39,0.03-0.58,0.04c-0.24,0-0.41-0.11-0.49-0.34c-0.08-0.23-0.13-0.47-0.17-0.71c-0.04-0.24,0.09-0.4,0.34-0.45
		c0.24-0.05,0.48-0.07,0.71-0.11c0.72-0.13,1.23-0.55,1.54-1.21C24.71,19.28,24.82,18.97,24.95,18.67z M17.78,12.8
		c-0.02-0.5-0.01-0.97-0.06-1.44c-0.07-0.54-0.42-0.86-0.93-1.03s-1.02-0.19-1.55-0.18c-0.7,0.01-1.39,0.08-2.07,0.23
		c-0.41,0.09-0.63-0.1-0.65-0.51c-0.01-0.12-0.01-0.26,0-0.38c0.02-0.35,0.14-0.53,0.48-0.61c0.39-0.09,0.78-0.16,1.17-0.19
		c0.85-0.08,1.7-0.09,2.54,0.05c0.47,0.08,0.92,0.2,1.34,0.43c0.86,0.46,1.3,1.19,1.37,2.14c0.04,0.61,0.04,1.23,0.04,1.84
		c0,0.94,0.03,1.88-0.03,2.82c-0.09,1.4-0.77,2.21-2.14,2.55c-1.24,0.31-2.51,0.36-3.75-0.03c-1.45-0.45-2.03-1.55-1.97-2.94
		c0.02-0.28,0.05-0.56,0.13-0.83c0.21-0.75,0.72-1.24,1.43-1.53c0.66-0.27,1.35-0.36,2.06-0.38c0.78-0.02,1.55-0.01,2.33-0.02
		C17.52,12.8,17.78,12.8,17.78,12.8z M17.79,14.17c-1.05,0.03-2.06,0.04-3.06,0.08c-0.39,0.02-0.78,0.13-1.07,0.42
		c-0.44,0.42-0.45,0.96-0.33,1.51c0.11,0.54,0.51,0.81,1.01,0.94c0.49,0.13,1.01,0.14,1.51,0.09c0.36-0.04,0.72-0.11,1.08-0.22
		c0.45-0.14,0.74-0.49,0.79-0.95C17.76,15.44,17.76,14.83,17.79,14.17z M46.5,3.57v0.97c0,0.26-0.13,0.41-0.39,0.41
		c-0.65,0.01-1.3,0.01-1.95,0c-0.26,0-0.39-0.16-0.39-0.41V2.63c0-0.27,0.14-0.41,0.41-0.41h1.9c0.27,0,0.41,0.15,0.41,0.42
		C46.5,2.64,46.5,3.57,46.5,3.57z M43.77,1.27v0.64c0,0.19-0.1,0.3-0.29,0.3c-0.42,0.01-0.84,0.01-1.26,0c-0.2,0-0.3-0.11-0.3-0.32
		V0.63c0-0.2,0.09-0.29,0.29-0.3c0.42-0.01,0.84-0.01,1.26,0c0.22,0,0.3,0.09,0.3,0.31V1.27z"/>
</g>
<path fill="#78C043" d="M40.1,5.84h0.71c0,0,1.09-0.07,1.09,1.06c0.01,1.13,0,1.77,0,1.77h-1.22c0,0-0.59,0.03-0.59-0.75
	C40.1,7.92,40.1,5.84,40.1,5.84z"/>
</svg>
